<svg xmlns="http://www.w3.org/2000/svg" style="width: 356px; height: 789px;" viewBox="0 0 356 789" preserveAspectRatio="none meet" width="356px" height="789px" contentScriptType="application/ecmascript" contentStyleType="text/css" zoomAndPan="magnify" version="1.1"><defs><filter id="f107e59dbf73jm" x="-1" y="-1" width="300%" height="300%"><feGaussianBlur result="blurOut" stdDeviation="2" /><feColorMatrix result="blurOut2" in="blurOut" type="matrix" values="0 0 0 0 0 0 0 0 0 0 0 0 0 0 0 0 0 0 0.4 0" /><feOffset result="blurOut3" in="blurOut2" dx="4" dy="4" /><feBlend in="SourceGraphic" in2="blurOut3" mode="normal" /></filter></defs><g><ellipse filter="url(&quot;#f107e59dbf73jm&quot;)" style="stroke: none; stroke-width: 1;" fill="#000000" cx="289.5" cy="18" rx="10" ry="10" /><rect filter="url(&quot;#f107e59dbf73jm&quot;)" style="stroke: #a80036; stroke-width: 1.5;" fill="#fefece" x="266" y="68" width="47" height="35.0938" rx="12.5" ry="12.5" /><text font-family="sans-serif" font-size="12" fill="#000000" lengthAdjust="spacingAndGlyphs" textLength="27" x="276" y="90.457">0,0,0</text><rect filter="url(&quot;#f107e59dbf73jm&quot;)" style="stroke: #a80036; stroke-width: 1.5;" fill="#fefece" x="199" y="143" width="47" height="35.0938" rx="12.5" ry="12.5" /><text font-family="sans-serif" font-size="12" fill="#000000" lengthAdjust="spacingAndGlyphs" textLength="27" x="209" y="165.457">0,1,0</text><rect filter="url(&quot;#f107e59dbf73jm&quot;)" style="stroke: #a80036; stroke-width: 1.5;" fill="#fefece" x="266" y="143" width="47" height="35.0938" rx="12.5" ry="12.5" /><text font-family="sans-serif" font-size="12" fill="#000000" lengthAdjust="spacingAndGlyphs" textLength="27" x="276" y="165.457">1,0,0</text><rect filter="url(&quot;#f107e59dbf73jm&quot;)" style="stroke: #a80036; stroke-width: 1.5;" fill="#fefece" x="199" y="218" width="47" height="35.0938" rx="12.5" ry="12.5" /><text font-family="sans-serif" font-size="12" fill="#000000" lengthAdjust="spacingAndGlyphs" textLength="27" x="209" y="240.457">0,1,1</text><rect filter="url(&quot;#f107e59dbf73jm&quot;)" style="stroke: #a80036; stroke-width: 1.5;" fill="#fefece" x="266" y="218" width="47" height="35.0938" rx="12.5" ry="12.5" /><text font-family="sans-serif" font-size="12" fill="#000000" lengthAdjust="spacingAndGlyphs" textLength="27" x="276" y="240.457">2,0,0</text><rect filter="url(&quot;#f107e59dbf73jm&quot;)" style="stroke: #a80036; stroke-width: 1.5;" fill="#fefece" x="136" y="293" width="47" height="35.0938" rx="12.5" ry="12.5" /><text font-family="sans-serif" font-size="12" fill="#000000" lengthAdjust="spacingAndGlyphs" textLength="27" x="146" y="315.457">0,1,2</text><rect filter="url(&quot;#f107e59dbf73jm&quot;)" style="stroke: #a80036; stroke-width: 1.5;" fill="#fefece" x="201" y="743" width="47" height="35.0938" rx="12.5" ry="12.5" /><text font-family="sans-serif" font-size="12" fill="#000000" lengthAdjust="spacingAndGlyphs" textLength="27" x="211" y="765.457">0,0,1</text><rect filter="url(&quot;#f107e59dbf73jm&quot;)" style="stroke: #a80036; stroke-width: 1.5;" fill="#fefece" x="266" y="293" width="47" height="35.0938" rx="12.5" ry="12.5" /><text font-family="sans-serif" font-size="12" fill="#000000" lengthAdjust="spacingAndGlyphs" textLength="27" x="276" y="315.457">3,0,0</text><rect filter="url(&quot;#f107e59dbf73jm&quot;)" style="stroke: #a80036; stroke-width: 1.5;" fill="#fefece" x="71" y="368" width="47" height="35.0938" rx="12.5" ry="12.5" /><text font-family="sans-serif" font-size="12" fill="#000000" lengthAdjust="spacingAndGlyphs" textLength="27" x="81" y="390.457">0,1,3</text><rect filter="url(&quot;#f107e59dbf73jm&quot;)" style="stroke: #a80036; stroke-width: 1.5;" fill="#fefece" x="136" y="668" width="47" height="35.0938" rx="12.5" ry="12.5" /><text font-family="sans-serif" font-size="12" fill="#000000" lengthAdjust="spacingAndGlyphs" textLength="27" x="146" y="690.457">0,0,2</text><rect filter="url(&quot;#f107e59dbf73jm&quot;)" style="stroke: #a80036; stroke-width: 1.5;" fill="#fefece" x="266" y="368" width="47" height="35.0938" rx="12.5" ry="12.5" /><text font-family="sans-serif" font-size="12" fill="#000000" lengthAdjust="spacingAndGlyphs" textLength="27" x="276" y="390.457">4,0,0</text><rect filter="url(&quot;#f107e59dbf73jm&quot;)" style="stroke: #a80036; stroke-width: 1.5;" fill="#fefece" x="6" y="443" width="47" height="35.0938" rx="12.5" ry="12.5" /><text font-family="sans-serif" font-size="12" fill="#000000" lengthAdjust="spacingAndGlyphs" textLength="27" x="16" y="465.457">0,1,4</text><rect filter="url(&quot;#f107e59dbf73jm&quot;)" style="stroke: #a80036; stroke-width: 1.5;" fill="#fefece" x="71" y="593" width="47" height="35.0938" rx="12.5" ry="12.5" /><text font-family="sans-serif" font-size="12" fill="#000000" lengthAdjust="spacingAndGlyphs" textLength="27" x="81" y="615.457">0,0,3</text><rect filter="url(&quot;#f107e59dbf73jm&quot;)" style="stroke: #a80036; stroke-width: 1.5;" fill="#fefece" x="266" y="443" width="47" height="35.0938" rx="12.5" ry="12.5" /><text font-family="sans-serif" font-size="12" fill="#000000" lengthAdjust="spacingAndGlyphs" textLength="27" x="276" y="465.457">5,0,0</text><rect filter="url(&quot;#f107e59dbf73jm&quot;)" style="stroke: #a80036; stroke-width: 1.5;" fill="#fefece" x="6" y="518" width="47" height="35.0938" rx="12.5" ry="12.5" /><text font-family="sans-serif" font-size="12" fill="#000000" lengthAdjust="spacingAndGlyphs" textLength="27" x="16" y="540.457">0,0,4</text><!--MD5=[7d6de1b849b9196cc51012ad5cbcece8]
link start to 0,0,0--><path id="start-&gt;0,0,0" style="stroke: #a80036; stroke-width: 1;" fill="none" d="M 289.5 28.11 C 289.5 37.01 289.5 50.9 289.5 62.67" /><polygon style="stroke: #a80036; stroke-width: 1;" fill="#a80036" points="289.5,67.9 293.5,58.9 289.5,62.9 285.5,58.9 289.5,67.9" /><!--MD5=[0d3acbf791c7412d01b34756158b63c8]
link 0,0,0 to 0,1,0--><path id="0,0,0-&gt;0,1,0" style="stroke: #a80036; stroke-width: 1;" fill="none" d="M 267.9 103.06 C 256.9 113.63 244.11 127.41 234.74 138.71" /><polygon style="stroke: #a80036; stroke-width: 1;" fill="#a80036" points="231.45,142.75 240.238,138.303 234.61,138.875 234.038,133.247 231.45,142.75" /><!--MD5=[238bd6f6f255f9751673a14ae9ea64ef]
link 0,1,0 to 0,0,0--><path id="0,1,0-&gt;0,0,0" style="stroke: #a80036; stroke-width: 1;" fill="none" d="M 244.3 142.75 C 255.32 132.15 268.1 118.36 277.43 107.09" /><polygon style="stroke: #a80036; stroke-width: 1;" fill="#a80036" points="280.7,103.06 271.912,107.507 277.54,106.935 278.112,112.563 280.7,103.06" /><!--MD5=[3230fc4d2a0a107b7bad7603b301b61a]
link 0,0,0 to 1,0,0--><path id="0,0,0-&gt;1,0,0" style="stroke: #a80036; stroke-width: 1;" fill="none" d="M 283.1 103.06 C 281.85 113.26 281.66 126.45 282.55 137.51" /><polygon style="stroke: #a80036; stroke-width: 1;" fill="#a80036" points="283.08,142.75 286.159,133.395 282.58,137.775 278.199,134.195 283.08,142.75" /><!--MD5=[d13e43940a44220f4701ab7f9c23721d]
link 1,0,0 to 0,0,0--><path id="1,0,0-&gt;0,0,0" style="stroke: #a80036; stroke-width: 1;" fill="none" d="M 295.92 142.75 C 297.16 132.52 297.33 119.32 296.43 108.29" /><polygon style="stroke: #a80036; stroke-width: 1;" fill="#a80036" points="295.9,103.06 292.845,112.423 296.413,108.034 300.802,111.602 295.9,103.06" /><!--MD5=[8b006cb793f7b35ddc7f1b3fc579862b]
link 0,1,0 to 0,1,1--><path id="0,1,0-&gt;0,1,1" style="stroke: #a80036; stroke-width: 1;" fill="none" d="M 216.1 178.06 C 214.85 188.26 214.66 201.45 215.55 212.51" /><polygon style="stroke: #a80036; stroke-width: 1;" fill="#a80036" points="216.08,217.75 219.159,208.395 215.58,212.775 211.199,209.195 216.08,217.75" /><!--MD5=[cea52faae01e4a4db6fe83b11c7fde66]
link 0,1,1 to 0,1,0--><path id="0,1,1-&gt;0,1,0" style="stroke: #a80036; stroke-width: 1;" fill="none" d="M 228.92 217.75 C 230.16 207.52 230.33 194.32 229.43 183.29" /><polygon style="stroke: #a80036; stroke-width: 1;" fill="#a80036" points="228.9,178.06 225.845,187.423 229.413,183.034 233.802,186.602 228.9,178.06" /><!--MD5=[3bbe137a23e3bcf049907b0b566efe95]
link 1,0,0 to 2,0,0--><path id="1,0,0-&gt;2,0,0" style="stroke: #a80036; stroke-width: 1;" fill="none" d="M 283.1 178.06 C 281.85 188.26 281.66 201.45 282.55 212.51" /><polygon style="stroke: #a80036; stroke-width: 1;" fill="#a80036" points="283.08,217.75 286.159,208.395 282.58,212.775 278.199,209.195 283.08,217.75" /><!--MD5=[0e4941ba54df3c5232dfc4578240208f]
link 2,0,0 to 1,0,0--><path id="2,0,0-&gt;1,0,0" style="stroke: #a80036; stroke-width: 1;" fill="none" d="M 295.92 217.75 C 297.16 207.52 297.33 194.32 296.43 183.29" /><polygon style="stroke: #a80036; stroke-width: 1;" fill="#a80036" points="295.9,178.06 292.845,187.423 296.413,183.034 300.802,186.602 295.9,178.06" /><!--MD5=[7e7761d0e72af8f125e0fc2c786cc932]
link 0,1,1 to 0,1,2--><path id="0,1,1-&gt;0,1,2" style="stroke: #a80036; stroke-width: 1;" fill="none" d="M 201.8 253.06 C 191.39 263.63 179.35 277.41 170.6 288.71" /><polygon style="stroke: #a80036; stroke-width: 1;" fill="#a80036" points="167.53,292.75 176.149,287.984 170.546,288.762 169.768,283.159 167.53,292.75" /><!--MD5=[8ca110d08f98c0e6dae43e7008e0d7f1]
link 0,1,2 to 0,1,1--><path id="0,1,2-&gt;0,1,1" style="stroke: #a80036; stroke-width: 1;" fill="none" d="M 180.38 292.75 C 190.82 282.15 202.85 268.36 211.56 257.09" /><polygon style="stroke: #a80036; stroke-width: 1;" fill="#a80036" points="214.61,253.06 205.98,257.806 211.585,257.041 212.35,262.646 214.61,253.06" /><!--MD5=[ac13619bcac7cb71e207ad937c3f6dec]
link 0,1,1 to 0,0,1--><path id="0,1,1-&gt;0,0,1" style="stroke: #a80036; stroke-width: 1;" fill="none" d="M 216.65 253.37 C 213.46 280.84 214.5 336.96 214.5 384.5 C 214.5 384.5 214.5 384.5 214.5 611.5 C 214.5 656.25 214.5 708.61 217.65 737.51" /><polygon style="stroke: #a80036; stroke-width: 1;" fill="#a80036" points="218.27,742.63 221.16,733.215 217.669,737.666 213.217,734.176 218.27,742.63" /><!--MD5=[0b355edd7515d061186469cc330efbad]
link 0,0,1 to 0,1,1--><path id="0,0,1-&gt;0,1,1" style="stroke: #a80036; stroke-width: 1;" fill="none" d="M 230.73 742.63 C 234.5 715.16 234.5 659.03 234.5 611.5 C 234.5 384.5 234.5 384.5 234.5 384.5 C 234.5 339.75 233.57 287.39 229.83 258.48" /><polygon style="stroke: #a80036; stroke-width: 1;" fill="#a80036" points="229.1,253.37 226.428,262.85 229.815,258.319 234.346,261.705 229.1,253.37" /><!--MD5=[cd3a2591e8f65b24c8dda4584ffb25e5]
link 2,0,0 to 3,0,0--><path id="2,0,0-&gt;3,0,0" style="stroke: #a80036; stroke-width: 1;" fill="none" d="M 283.1 253.06 C 281.85 263.26 281.66 276.45 282.55 287.51" /><polygon style="stroke: #a80036; stroke-width: 1;" fill="#a80036" points="283.08,292.75 286.159,283.395 282.58,287.775 278.199,284.195 283.08,292.75" /><!--MD5=[53376c92e850906a96e0fd38a518024a]
link 3,0,0 to 2,0,0--><path id="3,0,0-&gt;2,0,0" style="stroke: #a80036; stroke-width: 1;" fill="none" d="M 295.92 292.75 C 297.16 282.52 297.33 269.32 296.43 258.29" /><polygon style="stroke: #a80036; stroke-width: 1;" fill="#a80036" points="295.9,253.06 292.845,262.423 296.413,258.034 300.802,261.602 295.9,253.06" /><!--MD5=[9bad9f11ab6ea574cc91ae88e8b9456a]
link 0,1,2 to 0,1,3--><path id="0,1,2-&gt;0,1,3" style="stroke: #a80036; stroke-width: 1;" fill="none" d="M 138.35 328.06 C 127.64 338.63 115.23 352.41 106.17 363.71" /><polygon style="stroke: #a80036; stroke-width: 1;" fill="#a80036" points="102.99,367.75 111.695,363.143 106.078,363.818 105.404,358.202 102.99,367.75" /><!--MD5=[fa30d6f0f0735db56ca9e6a37b8ac9ee]
link 0,1,3 to 0,1,2--><path id="0,1,3-&gt;0,1,2" style="stroke: #a80036; stroke-width: 1;" fill="none" d="M 115.84 367.75 C 126.57 357.15 138.97 343.36 147.99 332.09" /><polygon style="stroke: #a80036; stroke-width: 1;" fill="#a80036" points="151.15,328.06 142.445,332.667 148.061,331.992 148.736,337.608 151.15,328.06" /><!--MD5=[8928278838d9e760d466646c2548c8e4]
link 0,1,2 to 0,0,2--><path id="0,1,2-&gt;0,0,2" style="stroke: #a80036; stroke-width: 1;" fill="none" d="M 153.27 328.37 C 149.5 355.84 149.5 411.97 149.5 459.5 C 149.5 459.5 149.5 459.5 149.5 536.5 C 149.5 581.25 149.5 633.61 152.65 662.51" /><polygon style="stroke: #a80036; stroke-width: 1;" fill="#a80036" points="153.27,667.63 156.16,658.215 152.669,662.666 148.217,659.176 153.27,667.63" /><!--MD5=[3f455cc48e7f30bf1c9322f590b2da67]
link 0,0,2 to 0,1,2--><path id="0,0,2-&gt;0,1,2" style="stroke: #a80036; stroke-width: 1;" fill="none" d="M 165.73 667.63 C 169.5 640.16 169.5 584.03 169.5 536.5 C 169.5 459.5 169.5 459.5 169.5 459.5 C 169.5 414.75 169.5 362.39 166.35 333.49" /><polygon style="stroke: #a80036; stroke-width: 1;" fill="#a80036" points="165.73,328.37 162.84,337.785 166.331,333.334 170.783,336.824 165.73,328.37" /><!--MD5=[45a6af229670eff89147d66e8222559f]
link 0,0,1 to 0,0,0--><path id="0,0,1-&gt;0,0,0" style="stroke: #a80036; stroke-width: 1;" fill="none" d="M 248.21 745.03 C 283.18 721.65 344.5 672.03 344.5 611.5 C 344.5 234.5 344.5 234.5 344.5 234.5 C 344.5 192.78 339.12 181.69 323.5 143 C 318.48 130.55 310.92 117.66 304.21 107.33" /><polygon style="stroke: #a80036; stroke-width: 1;" fill="#a80036" points="301.39,103.07 303.016,112.784 304.147,107.241 309.69,108.373 301.39,103.07" /><!--MD5=[cb38645d8e9a759577c8c08601380d8f]
link 3,0,0 to 4,0,0--><path id="3,0,0-&gt;4,0,0" style="stroke: #a80036; stroke-width: 1;" fill="none" d="M 283.1 328.06 C 281.85 338.26 281.66 351.45 282.55 362.51" /><polygon style="stroke: #a80036; stroke-width: 1;" fill="#a80036" points="283.08,367.75 286.159,358.395 282.58,362.775 278.199,359.195 283.08,367.75" /><!--MD5=[1cd03ff500394aac42280527f3549a1a]
link 4,0,0 to 3,0,0--><path id="4,0,0-&gt;3,0,0" style="stroke: #a80036; stroke-width: 1;" fill="none" d="M 295.92 367.75 C 297.16 357.52 297.33 344.32 296.43 333.29" /><polygon style="stroke: #a80036; stroke-width: 1;" fill="#a80036" points="295.9,328.06 292.845,337.423 296.413,333.034 300.802,336.602 295.9,328.06" /><!--MD5=[68f1988e31974291256379e230fca7e6]
link 0,1,3 to 0,1,4--><path id="0,1,3-&gt;0,1,4" style="stroke: #a80036; stroke-width: 1;" fill="none" d="M 79.75 403.06 C 70.26 413.72 57.86 427.65 47.75 439.01" /><polygon style="stroke: #a80036; stroke-width: 1;" fill="#a80036" points="44.42,442.75 53.3899,438.683 47.7427,439.014 47.4119,433.367 44.42,442.75" /><!--MD5=[fd2ff0616f1f6e457accd0fe180dd97f]
link 0,1,3 to 0,0,3--><path id="0,1,3-&gt;0,0,3" style="stroke: #a80036; stroke-width: 1;" fill="none" d="M 90.31 403.26 C 86.07 443.07 85.9 543.29 89.82 587.71" /><polygon style="stroke: #a80036; stroke-width: 1;" fill="#a80036" points="90.32,592.85 93.4285,583.505 89.8352,587.874 85.4662,584.28 90.32,592.85" /><!--MD5=[b418eba736a5f9bb9e91a879de6002c9]
link 0,0,3 to 0,1,3--><path id="0,0,3-&gt;0,1,3" style="stroke: #a80036; stroke-width: 1;" fill="none" d="M 98.68 592.85 C 102.93 553.15 103.1 452.94 99.19 408.41" /><polygon style="stroke: #a80036; stroke-width: 1;" fill="#a80036" points="98.69,403.26 95.5815,412.605 99.1748,408.236 103.544,411.83 98.69,403.26" /><!--MD5=[05cc94dd4914ed2f7c5b5ff8c15626e6]
link 0,0,2 to 0,0,1--><path id="0,0,2-&gt;0,0,1" style="stroke: #a80036; stroke-width: 1;" fill="none" d="M 174.25 703.06 C 183.74 713.72 196.14 727.65 206.25 739.01" /><polygon style="stroke: #a80036; stroke-width: 1;" fill="#a80036" points="209.58,742.75 206.588,733.367 206.257,739.014 200.61,738.683 209.58,742.75" /><!--MD5=[9a38ef6e5d2329e56235eb738a386d29]
link 4,0,0 to 5,0,0--><path id="4,0,0-&gt;5,0,0" style="stroke: #a80036; stroke-width: 1;" fill="none" d="M 283.1 403.06 C 281.85 413.26 281.66 426.45 282.55 437.51" /><polygon style="stroke: #a80036; stroke-width: 1;" fill="#a80036" points="283.08,442.75 286.159,433.395 282.58,437.775 278.199,434.195 283.08,442.75" /><!--MD5=[ed6c9698226645a9f9084383eea759d4]
link 5,0,0 to 4,0,0--><path id="5,0,0-&gt;4,0,0" style="stroke: #a80036; stroke-width: 1;" fill="none" d="M 295.92 442.75 C 297.16 432.52 297.33 419.32 296.43 408.29" /><polygon style="stroke: #a80036; stroke-width: 1;" fill="#a80036" points="295.9,403.06 292.845,412.423 296.413,408.034 300.802,411.602 295.9,403.06" /><!--MD5=[88fd8865dc04c9c1261c3c3cb4e2b0b2]
link 0,1,4 to 0,0,4--><path id="0,1,4-&gt;0,0,4" style="stroke: #a80036; stroke-width: 1;" fill="none" d="M 29.5 478.06 C 29.5 488.26 29.5 501.45 29.5 512.51" /><polygon style="stroke: #a80036; stroke-width: 1;" fill="#a80036" points="29.5,517.75 33.5,508.75 29.5,512.75 25.5,508.75 29.5,517.75" /><!--MD5=[b4779f90c0e2e651e47a18590c522386]
link 0,0,3 to 0,0,2--><path id="0,0,3-&gt;0,0,2" style="stroke: #a80036; stroke-width: 1;" fill="none" d="M 109.25 628.06 C 118.74 638.72 131.14 652.65 141.25 664.01" /><polygon style="stroke: #a80036; stroke-width: 1;" fill="#a80036" points="144.58,667.75 141.588,658.367 141.257,664.014 135.61,663.683 144.58,667.75" /><!--MD5=[a2e45cf88bcc4fbf44f3b3cf0475aff9]
link 0,0,4 to 0,0,3--><path id="0,0,4-&gt;0,0,3" style="stroke: #a80036; stroke-width: 1;" fill="none" d="M 44.25 553.06 C 53.74 563.72 66.14 577.65 76.25 589.01" /><polygon style="stroke: #a80036; stroke-width: 1;" fill="#a80036" points="79.58,592.75 76.5881,583.367 76.2573,589.014 70.6101,588.683 79.58,592.75" /><!--MD5=[c6f1e552fe055677ca78d8f2365ac568]
@startuml
(*) - -> "0,0,0"
"0,0,0" - -> "0,1,0"
"0,0,0" - -> "1,0,0"
"0,1,0" - -> "0,1,1"
"0,1,0" - -> "0,0,0"
"1,0,0" - -> "2,0,0"
"1,0,0" - -> "0,0,0"
"0,1,1" - -> "0,1,2"
"0,1,1" - -> "0,1,0"
"0,1,1" - -> "0,0,1"
"2,0,0" - -> "3,0,0"
"2,0,0" - -> "1,0,0"
"0,1,2" - -> "0,1,3"
"0,1,2" - -> "0,1,1"
"0,1,2" - -> "0,0,2"
"0,0,1" - -> "0,1,1"
"0,0,1" - -> "0,0,0"
"3,0,0" - -> "4,0,0"
"3,0,0" - -> "2,0,0"
"0,1,3" - -> "0,1,4"
"0,1,3" - -> "0,1,2"
"0,1,3" - -> "0,0,3"
"0,0,2" - -> "0,1,2"
"0,0,2" - -> "0,0,1"
"4,0,0" - -> "5,0,0"
"4,0,0" - -> "3,0,0"
"0,1,4" - -> "0,0,4"
"0,0,3" - -> "0,1,3"
"0,0,3" - -> "0,0,2"
"5,0,0" - -> "4,0,0"
"0,0,4" - -> "0,0,3"
@enduml

PlantUML version 1.2019.11(Sun Sep 22 06:02:15 EDT 2019)
(EPL source distribution)
Java Runtime: Java(TM) SE Runtime Environment
JVM: Java HotSpot(TM) 64-Bit Server VM
Java Version: 1.8.0_171-b11
Operating System: Windows 10
Default Encoding: Cp1252
Language: en
Country: IN
--></g></svg>